<svg width="48" height="48" viewBox="0 0 48 48" fill="none" xmlns="http://www.w3.org/2000/svg">
  <path d="M8 13.5C8 11.8431 9.34315 10.5 11 10.5H21.5C24.5376 10.5 27 12.9624 27 16V36.5C25.7184 35.0037 23.8387 34.0312 21.7324 34H11C9.34315 34 8 32.6569 8 31V13.5Z" fill="#A8AEFF"/>
  <path d="M27 16C27 12.9624 29.4624 10.5 32.5 10.5H37C38.6569 10.5 40 11.8431 40 13.5V31C40 32.6569 38.6569 34 37 34H32.2676C30.1613 34.0312 28.2816 35.0037 27 36.5V16Z" fill="#D4D7FF"/>
  <path d="M27 16V36.5" stroke="#7C86E6" stroke-width="1.5" stroke-linecap="round"/>
  <circle cx="35.5" cy="7.5" r="3" fill="#7C86E6"/>
</svg>
